<?xml version="1.0" encoding="UTF-8" ?>
<svg version="1.1" width="64" height="64" xmlns="http://www.w3.org/2000/svg" shape-rendering="crispEdges">
<rect x="0" y="0" width="64" height="1" fill="#CBDBFC" />
<rect x="0" y="1" width="20" height="1" fill="#CBDBFC" />
<rect x="20" y="1" width="3" height="3" fill="#FFFFFF" />
<rect x="23" y="1" width="5" height="3" fill="#CBDBFC" />
<rect x="28" y="1" width="2" height="1" fill="#FFFFFF" />
<rect x="30" y="1" width="5" height="3" fill="#CBDBFC" />
<rect x="35" y="1" width="2" height="1" fill="#FFFFFF" />
<rect x="37" y="1" width="9" height="1" fill="#CBDBFC" />
<rect x="46" y="1" width="2" height="1" fill="#FFFFFF" />
<rect x="48" y="1" width="15" height="1" fill="#CBDBFC" />
<rect x="63" y="1" width="1" height="63" fill="#151F33" />
<rect x="0" y="2" width="19" height="2" fill="#CBDBFC" />
<rect x="19" y="2" width="1" height="3" fill="#FFFFFF" />
<rect x="28" y="2" width="2" height="2" fill="#CBDBFC" />
<rect x="35" y="2" width="5" height="2" fill="#CBDBFC" />
<rect x="40" y="2" width="7" height="1" fill="#FFFFFF" />
<rect x="47" y="2" width="4" height="2" fill="#CBDBFC" />
<rect x="51" y="2" width="2" height="2" fill="#FFFFFF" />
<rect x="53" y="2" width="9" height="1" fill="#CBDBFC" />
<rect x="62" y="2" width="1" height="51" fill="#151F33" />
<rect x="40" y="3" width="7" height="2" fill="#CBDBFC" />
<rect x="53" y="3" width="8" height="1" fill="#CBDBFC" />
<rect x="61" y="3" width="1" height="6" fill="#151F33" />
<rect x="0" y="4" width="6" height="1" fill="#CBDBFC" />
<rect x="6" y="4" width="4" height="2" fill="#FFFFFF" />
<rect x="10" y="4" width="8" height="4" fill="#CBDBFC" />
<rect x="18" y="4" width="1" height="1" fill="#FFFFFF" />
<rect x="20" y="4" width="7" height="1" fill="#CBDBFC" />
<rect x="27" y="4" width="11" height="1" fill="#000000" />
<rect x="38" y="4" width="2" height="1" fill="#CBDBFC" />
<rect x="47" y="4" width="2" height="4" fill="#CBDBFC" />
<rect x="49" y="4" width="3" height="1" fill="#FFFFFF" />
<rect x="52" y="4" width="8" height="1" fill="#CBDBFC" />
<rect x="60" y="4" width="1" height="23" fill="#151F33" />
<rect x="0" y="5" width="5" height="12" fill="#CBDBFC" />
<rect x="5" y="5" width="1" height="5" fill="#FFFFFF" />
<rect x="18" y="5" width="5" height="1" fill="#CBDBFC" />
<rect x="23" y="5" width="4" height="1" fill="#000000" />
<rect x="27" y="5" width="11" height="21" fill="#FBF289" />
<rect x="38" y="5" width="4" height="1" fill="#000000" />
<rect x="42" y="5" width="5" height="1" fill="#CBDBFC" />
<rect x="49" y="5" width="1" height="1" fill="#FFFFFF" />
<rect x="50" y="5" width="9" height="1" fill="#CBDBFC" />
<rect x="59" y="5" width="1" height="18" fill="#151F33" />
<rect x="6" y="6" width="3" height="1" fill="#FFFFFF" />
<rect x="9" y="6" width="1" height="10" fill="#CBDBFC" />
<rect x="18" y="6" width="3" height="1" fill="#CBDBFC" />
<rect x="21" y="6" width="2" height="1" fill="#000000" />
<rect x="23" y="6" width="4" height="31" fill="#FBF289" />
<rect x="38" y="6" width="4" height="16" fill="#FBF289" />
<rect x="42" y="6" width="2" height="1" fill="#000000" />
<rect x="44" y="6" width="3" height="1" fill="#CBDBFC" />
<rect x="49" y="6" width="9" height="1" fill="#CBDBFC" />
<rect x="58" y="6" width="1" height="15" fill="#151F33" />
<rect x="6" y="7" width="2" height="1" fill="#FFFFFF" />
<rect x="8" y="7" width="1" height="10" fill="#CBDBFC" />
<rect x="18" y="7" width="1" height="1" fill="#CBDBFC" />
<rect x="19" y="7" width="2" height="1" fill="#000000" />
<rect x="21" y="7" width="2" height="34" fill="#FBF289" />
<rect x="42" y="7" width="2" height="13" fill="#FBF289" />
<rect x="44" y="7" width="2" height="1" fill="#000000" />
<rect x="46" y="7" width="1" height="1" fill="#CBDBFC" />
<rect x="49" y="7" width="8" height="1" fill="#CBDBFC" />
<rect x="57" y="7" width="1" height="5" fill="#151F33" />
<rect x="6" y="8" width="1" height="1" fill="#FFFFFF" />
<rect x="7" y="8" width="1" height="11" fill="#CBDBFC" />
<rect x="10" y="8" width="7" height="1" fill="#CBDBFC" />
<rect x="17" y="8" width="2" height="1" fill="#000000" />
<rect x="19" y="8" width="2" height="35" fill="#FBF289" />
<rect x="44" y="8" width="2" height="10" fill="#FBF289" />
<rect x="46" y="8" width="2" height="1" fill="#000000" />
<rect x="48" y="8" width="8" height="1" fill="#CBDBFC" />
<rect x="56" y="8" width="1" height="9" fill="#151F33" />
<rect x="6" y="9" width="1" height="12" fill="#CBDBFC" />
<rect x="10" y="9" width="6" height="1" fill="#CBDBFC" />
<rect x="16" y="9" width="1" height="1" fill="#000000" />
<rect x="17" y="9" width="2" height="36" fill="#FBF289" />
<rect x="46" y="9" width="2" height="7" fill="#FBF289" />
<rect x="48" y="9" width="1" height="1" fill="#000000" />
<rect x="49" y="9" width="6" height="1" fill="#CBDBFC" />
<rect x="55" y="9" width="1" height="7" fill="#151F33" />
<rect x="61" y="9" width="1" height="1" fill="#FFFFFF" />
<rect x="5" y="10" width="1" height="13" fill="#CBDBFC" />
<rect x="10" y="10" width="5" height="1" fill="#CBDBFC" />
<rect x="15" y="10" width="1" height="1" fill="#000000" />
<rect x="16" y="10" width="1" height="37" fill="#FBF289" />
<rect x="48" y="10" width="1" height="5" fill="#FBF289" />
<rect x="49" y="10" width="1" height="1" fill="#000000" />
<rect x="50" y="10" width="4" height="1" fill="#CBDBFC" />
<rect x="54" y="10" width="1" height="5" fill="#151F33" />
<rect x="61" y="10" width="1" height="10" fill="#151F33" />
<rect x="10" y="11" width="3" height="1" fill="#CBDBFC" />
<rect x="13" y="11" width="2" height="1" fill="#000000" />
<rect x="15" y="11" width="1" height="37" fill="#FBF289" />
<rect x="49" y="11" width="1" height="3" fill="#FBF289" />
<rect x="50" y="11" width="3" height="1" fill="#000000" />
<rect x="53" y="11" width="1" height="2" fill="#151F33" />
<rect x="10" y="12" width="2" height="1" fill="#CBDBFC" />
<rect x="12" y="12" width="1" height="1" fill="#000000" />
<rect x="13" y="12" width="2" height="37" fill="#FBF289" />
<rect x="50" y="12" width="1" height="1" fill="#FBF289" />
<rect x="51" y="12" width="2" height="1" fill="#000000" />
<rect x="57" y="12" width="1" height="1" fill="#FFFFFF" />
<rect x="10" y="13" width="1" height="2" fill="#CBDBFC" />
<rect x="11" y="13" width="1" height="2" fill="#000000" />
<rect x="12" y="13" width="1" height="38" fill="#FBF289" />
<rect x="50" y="13" width="1" height="1" fill="#000000" />
<rect x="51" y="13" width="2" height="24" fill="#324878" />
<rect x="53" y="13" width="1" height="2" fill="#000000" />
<rect x="57" y="13" width="1" height="6" fill="#151F33" />
<rect x="49" y="14" width="1" height="1" fill="#000000" />
<rect x="50" y="14" width="1" height="10" fill="#324878" />
<rect x="10" y="15" width="1" height="1" fill="#000000" />
<rect x="11" y="15" width="1" height="35" fill="#FBF289" />
<rect x="48" y="15" width="1" height="1" fill="#000000" />
<rect x="49" y="15" width="1" height="9" fill="#324878" />
<rect x="53" y="15" width="1" height="20" fill="#324878" />
<rect x="54" y="15" width="1" height="1" fill="#000000" />
<rect x="9" y="16" width="1" height="1" fill="#000000" />
<rect x="10" y="16" width="1" height="33" fill="#FBF289" />
<rect x="46" y="16" width="1" height="1" fill="#FBF289" />
<rect x="47" y="16" width="1" height="1" fill="#000000" />
<rect x="48" y="16" width="1" height="37" fill="#324878" />
<rect x="54" y="16" width="1" height="19" fill="#324878" />
<rect x="55" y="16" width="1" height="1" fill="#000000" />
<rect x="0" y="17" width="2" height="3" fill="#CBDBFC" />
<rect x="2" y="17" width="2" height="3" fill="#FFFFFF" />
<rect x="4" y="17" width="1" height="10" fill="#CBDBFC" />
<rect x="8" y="17" width="1" height="2" fill="#000000" />
<rect x="9" y="17" width="1" height="31" fill="#FBF289" />
<rect x="46" y="17" width="1" height="1" fill="#000000" />
<rect x="47" y="17" width="1" height="19" fill="#324878" />
<rect x="55" y="17" width="1" height="31" fill="#324878" />
<rect x="56" y="17" width="1" height="2" fill="#000000" />
<rect x="44" y="18" width="1" height="1" fill="#FBF289" />
<rect x="45" y="18" width="1" height="1" fill="#000000" />
<rect x="46" y="18" width="1" height="18" fill="#324878" />
<rect x="7" y="19" width="1" height="2" fill="#000000" />
<rect x="8" y="19" width="1" height="27" fill="#FBF289" />
<rect x="44" y="19" width="1" height="1" fill="#000000" />
<rect x="45" y="19" width="1" height="7" fill="#324878" />
<rect x="56" y="19" width="1" height="25" fill="#324878" />
<rect x="57" y="19" width="1" height="2" fill="#000000" />
<rect x="0" y="20" width="1" height="44" fill="#CBDBFC" />
<rect x="1" y="20" width="2" height="3" fill="#FFFFFF" />
<rect x="3" y="20" width="1" height="24" fill="#CBDBFC" />
<rect x="42" y="20" width="1" height="1" fill="#FBF289" />
<rect x="43" y="20" width="1" height="1" fill="#000000" />
<rect x="44" y="20" width="1" height="6" fill="#324878" />
<rect x="61" y="20" width="1" height="1" fill="#FFFFFF" />
<rect x="6" y="21" width="1" height="2" fill="#000000" />
<rect x="7" y="21" width="1" height="23" fill="#FBF289" />
<rect x="42" y="21" width="1" height="1" fill="#000000" />
<rect x="43" y="21" width="1" height="37" fill="#324878" />
<rect x="57" y="21" width="1" height="23" fill="#324878" />
<rect x="58" y="21" width="1" height="2" fill="#000000" />
<rect x="61" y="21" width="1" height="43" fill="#151F33" />
<rect x="38" y="22" width="3" height="1" fill="#FBF289" />
<rect x="41" y="22" width="1" height="1" fill="#000000" />
<rect x="42" y="22" width="1" height="33" fill="#324878" />
<rect x="1" y="23" width="1" height="13" fill="#CBDBFC" />
<rect x="2" y="23" width="1" height="1" fill="#FFFFFF" />
<rect x="5" y="23" width="1" height="4" fill="#000000" />
<rect x="6" y="23" width="1" height="19" fill="#FBF289" />
<rect x="38" y="23" width="2" height="1" fill="#FBF289" />
<rect x="40" y="23" width="1" height="1" fill="#000000" />
<rect x="41" y="23" width="1" height="13" fill="#324878" />
<rect x="58" y="23" width="1" height="19" fill="#324878" />
<rect x="59" y="23" width="1" height="4" fill="#000000" />
<rect x="2" y="24" width="1" height="19" fill="#CBDBFC" />
<rect x="38" y="24" width="1" height="1" fill="#FBF289" />
<rect x="39" y="24" width="1" height="1" fill="#000000" />
<rect x="40" y="24" width="1" height="12" fill="#324878" />
<rect x="49" y="24" width="2" height="2" fill="#243457" />
<rect x="38" y="25" width="1" height="1" fill="#000000" />
<rect x="39" y="25" width="1" height="23" fill="#324878" />
<rect x="27" y="26" width="10" height="1" fill="#FBF289" />
<rect x="37" y="26" width="1" height="1" fill="#000000" />
<rect x="38" y="26" width="1" height="17" fill="#324878" />
<rect x="44" y="26" width="2" height="2" fill="#243457" />
<rect x="49" y="26" width="2" height="11" fill="#324878" />
<rect x="4" y="27" width="1" height="11" fill="#000000" />
<rect x="5" y="27" width="1" height="11" fill="#FBF289" />
<rect x="27" y="27" width="9" height="1" fill="#FBF289" />
<rect x="36" y="27" width="1" height="1" fill="#000000" />
<rect x="37" y="27" width="1" height="16" fill="#324878" />
<rect x="59" y="27" width="1" height="11" fill="#324878" />
<rect x="60" y="27" width="1" height="11" fill="#000000" />
<rect x="27" y="28" width="8" height="1" fill="#FBF289" />
<rect x="35" y="28" width="1" height="1" fill="#000000" />
<rect x="36" y="28" width="1" height="23" fill="#324878" />
<rect x="44" y="28" width="2" height="8" fill="#324878" />
<rect x="27" y="29" width="7" height="1" fill="#FBF289" />
<rect x="34" y="29" width="1" height="1" fill="#000000" />
<rect x="35" y="29" width="1" height="3" fill="#324878" />
<rect x="27" y="30" width="6" height="1" fill="#FBF289" />
<rect x="33" y="30" width="1" height="1" fill="#000000" />
<rect x="34" y="30" width="1" height="2" fill="#324878" />
<rect x="27" y="31" width="5" height="1" fill="#FBF289" />
<rect x="32" y="31" width="1" height="1" fill="#000000" />
<rect x="33" y="31" width="1" height="9" fill="#324878" />
<rect x="27" y="32" width="4" height="1" fill="#FBF289" />
<rect x="31" y="32" width="1" height="1" fill="#000000" />
<rect x="32" y="32" width="1" height="18" fill="#324878" />
<rect x="34" y="32" width="2" height="2" fill="#243457" />
<rect x="27" y="33" width="3" height="1" fill="#FBF289" />
<rect x="30" y="33" width="1" height="1" fill="#000000" />
<rect x="31" y="33" width="1" height="1" fill="#324878" />
<rect x="27" y="34" width="2" height="1" fill="#FBF289" />
<rect x="29" y="34" width="1" height="1" fill="#000000" />
<rect x="30" y="34" width="2" height="2" fill="#243457" />
<rect x="34" y="34" width="2" height="6" fill="#324878" />
<rect x="27" y="35" width="1" height="1" fill="#FBF289" />
<rect x="28" y="35" width="1" height="1" fill="#000000" />
<rect x="29" y="35" width="1" height="2" fill="#324878" />
<rect x="53" y="35" width="2" height="2" fill="#243457" />
<rect x="1" y="36" width="1" height="1" fill="#FFFFFF" />
<rect x="27" y="36" width="1" height="1" fill="#000000" />
<rect x="28" y="36" width="1" height="1" fill="#324878" />
<rect x="30" y="36" width="2" height="8" fill="#324878" />
<rect x="40" y="36" width="2" height="2" fill="#243457" />
<rect x="44" y="36" width="4" height="2" fill="#243457" />
<rect x="1" y="37" width="1" height="2" fill="#CBDBFC" />
<rect x="23" y="37" width="3" height="1" fill="#FBF289" />
<rect x="26" y="37" width="1" height="1" fill="#000000" />
<rect x="27" y="37" width="3" height="2" fill="#243457" />
<rect x="49" y="37" width="1" height="16" fill="#324878" />
<rect x="50" y="37" width="2" height="2" fill="#243457" />
<rect x="52" y="37" width="3" height="11" fill="#324878" />
<rect x="4" y="38" width="1" height="13" fill="#CBDBFC" />
<rect x="5" y="38" width="1" height="4" fill="#000000" />
<rect x="23" y="38" width="2" height="1" fill="#FBF289" />
<rect x="25" y="38" width="1" height="1" fill="#000000" />
<rect x="26" y="38" width="1" height="4" fill="#324878" />
<rect x="40" y="38" width="2" height="10" fill="#324878" />
<rect x="44" y="38" width="4" height="2" fill="#324878" />
<rect x="59" y="38" width="1" height="4" fill="#000000" />
<rect x="60" y="38" width="1" height="26" fill="#151F33" />
<rect x="1" y="39" width="1" height="2" fill="#FFFFFF" />
<rect x="23" y="39" width="1" height="1" fill="#FBF289" />
<rect x="24" y="39" width="1" height="1" fill="#000000" />
<rect x="25" y="39" width="1" height="1" fill="#243457" />
<rect x="27" y="39" width="2" height="2" fill="#243457" />
<rect x="29" y="39" width="1" height="5" fill="#324878" />
<rect x="50" y="39" width="2" height="9" fill="#324878" />
<rect x="23" y="40" width="1" height="1" fill="#000000" />
<rect x="24" y="40" width="1" height="1" fill="#243457" />
<rect x="25" y="40" width="1" height="2" fill="#324878" />
<rect x="33" y="40" width="2" height="2" fill="#243457" />
<rect x="35" y="40" width="1" height="3" fill="#324878" />
<rect x="44" y="40" width="1" height="9" fill="#324878" />
<rect x="45" y="40" width="2" height="2" fill="#243457" />
<rect x="47" y="40" width="1" height="16" fill="#324878" />
<rect x="1" y="41" width="1" height="1" fill="#CBDBFC" />
<rect x="21" y="41" width="1" height="1" fill="#FBF289" />
<rect x="22" y="41" width="1" height="1" fill="#000000" />
<rect x="23" y="41" width="2" height="1" fill="#324878" />
<rect x="27" y="41" width="2" height="1" fill="#324878" />
<rect x="1" y="42" width="1" height="5" fill="#FFFFFF" />
<rect x="5" y="42" width="1" height="9" fill="#CBDBFC" />
<rect x="6" y="42" width="1" height="2" fill="#000000" />
<rect x="21" y="42" width="1" height="1" fill="#000000" />
<rect x="22" y="42" width="2" height="3" fill="#324878" />
<rect x="24" y="42" width="4" height="2" fill="#243457" />
<rect x="28" y="42" width="1" height="6" fill="#324878" />
<rect x="33" y="42" width="2" height="1" fill="#324878" />
<rect x="45" y="42" width="2" height="7" fill="#324878" />
<rect x="58" y="42" width="1" height="2" fill="#000000" />
<rect x="59" y="42" width="1" height="22" fill="#151F33" />
<rect x="2" y="43" width="1" height="2" fill="#FFFFFF" />
<rect x="19" y="43" width="1" height="1" fill="#FBF289" />
<rect x="20" y="43" width="1" height="1" fill="#000000" />
<rect x="21" y="43" width="1" height="15" fill="#324878" />
<rect x="33" y="43" width="1" height="5" fill="#324878" />
<rect x="34" y="43" width="2" height="3" fill="#243457" />
<rect x="37" y="43" width="2" height="2" fill="#243457" />
<rect x="3" y="44" width="1" height="4" fill="#FFFFFF" />
<rect x="6" y="44" width="1" height="14" fill="#CBDBFC" />
<rect x="7" y="44" width="1" height="2" fill="#000000" />
<rect x="19" y="44" width="1" height="1" fill="#000000" />
<rect x="20" y="44" width="1" height="13" fill="#324878" />
<rect x="24" y="44" width="4" height="3" fill="#324878" />
<rect x="29" y="44" width="2" height="2" fill="#243457" />
<rect x="31" y="44" width="1" height="1" fill="#324878" />
<rect x="56" y="44" width="1" height="2" fill="#243457" />
<rect x="57" y="44" width="1" height="2" fill="#000000" />
<rect x="58" y="44" width="1" height="20" fill="#151F33" />
<rect x="2" y="45" width="1" height="1" fill="#CBDBFC" />
<rect x="17" y="45" width="1" height="1" fill="#FBF289" />
<rect x="18" y="45" width="1" height="1" fill="#000000" />
<rect x="19" y="45" width="1" height="12" fill="#324878" />
<rect x="22" y="45" width="2" height="2" fill="#243457" />
<rect x="31" y="45" width="1" height="2" fill="#243457" />
<rect x="37" y="45" width="2" height="7" fill="#324878" />
<rect x="2" y="46" width="1" height="2" fill="#FFFFFF" />
<rect x="7" y="46" width="1" height="11" fill="#CBDBFC" />
<rect x="8" y="46" width="1" height="2" fill="#000000" />
<rect x="17" y="46" width="1" height="1" fill="#000000" />
<rect x="18" y="46" width="1" height="10" fill="#324878" />
<rect x="29" y="46" width="1" height="2" fill="#324878" />
<rect x="30" y="46" width="1" height="1" fill="#243457" />
<rect x="34" y="46" width="2" height="1" fill="#324878" />
<rect x="56" y="46" width="1" height="2" fill="#000000" />
<rect x="57" y="46" width="1" height="18" fill="#151F33" />
<rect x="1" y="47" width="1" height="16" fill="#CBDBFC" />
<rect x="16" y="47" width="1" height="1" fill="#000000" />
<rect x="17" y="47" width="1" height="9" fill="#324878" />
<rect x="22" y="47" width="1" height="11" fill="#324878" />
<rect x="23" y="47" width="2" height="2" fill="#243457" />
<rect x="25" y="47" width="3" height="1" fill="#324878" />
<rect x="30" y="47" width="2" height="1" fill="#324878" />
<rect x="34" y="47" width="2" height="2" fill="#243457" />
<rect x="2" y="48" width="2" height="3" fill="#CBDBFC" />
<rect x="8" y="48" width="1" height="8" fill="#CBDBFC" />
<rect x="9" y="48" width="1" height="1" fill="#000000" />
<rect x="15" y="48" width="1" height="1" fill="#000000" />
<rect x="16" y="48" width="1" height="7" fill="#324878" />
<rect x="25" y="48" width="2" height="2" fill="#324878" />
<rect x="27" y="48" width="5" height="2" fill="#243457" />
<rect x="33" y="48" width="1" height="6" fill="#243457" />
<rect x="39" y="48" width="2" height="2" fill="#243457" />
<rect x="41" y="48" width="1" height="6" fill="#324878" />
<rect x="50" y="48" width="1" height="5" fill="#324878" />
<rect x="51" y="48" width="2" height="2" fill="#243457" />
<rect x="53" y="48" width="2" height="1" fill="#324878" />
<rect x="55" y="48" width="1" height="1" fill="#000000" />
<rect x="56" y="48" width="1" height="16" fill="#151F33" />
<rect x="9" y="49" width="1" height="6" fill="#CBDBFC" />
<rect x="10" y="49" width="1" height="1" fill="#000000" />
<rect x="13" y="49" width="1" height="1" fill="#FBF289" />
<rect x="14" y="49" width="1" height="1" fill="#000000" />
<rect x="15" y="49" width="1" height="5" fill="#324878" />
<rect x="23" y="49" width="2" height="9" fill="#324878" />
<rect x="34" y="49" width="1" height="2" fill="#243457" />
<rect x="35" y="49" width="1" height="2" fill="#324878" />
<rect x="44" y="49" width="2" height="2" fill="#243457" />
<rect x="46" y="49" width="1" height="7" fill="#324878" />
<rect x="53" y="49" width="1" height="1" fill="#324878" />
<rect x="54" y="49" width="1" height="1" fill="#000000" />
<rect x="55" y="49" width="1" height="13" fill="#151F33" />
<rect x="10" y="50" width="1" height="4" fill="#CBDBFC" />
<rect x="11" y="50" width="1" height="3" fill="#000000" />
<rect x="13" y="50" width="1" height="1" fill="#000000" />
<rect x="14" y="50" width="1" height="3" fill="#324878" />
<rect x="25" y="50" width="1" height="5" fill="#324878" />
<rect x="26" y="50" width="2" height="2" fill="#243457" />
<rect x="28" y="50" width="4" height="1" fill="#324878" />
<rect x="32" y="50" width="1" height="2" fill="#243457" />
<rect x="39" y="50" width="2" height="2" fill="#324878" />
<rect x="51" y="50" width="2" height="2" fill="#324878" />
<rect x="53" y="50" width="1" height="2" fill="#000000" />
<rect x="54" y="50" width="1" height="14" fill="#151F33" />
<rect x="2" y="51" width="1" height="1" fill="#CBDBFC" />
<rect x="3" y="51" width="3" height="5" fill="#FFFFFF" />
<rect x="12" y="51" width="1" height="2" fill="#000000" />
<rect x="13" y="51" width="1" height="2" fill="#324878" />
<rect x="28" y="51" width="2" height="6" fill="#324878" />
<rect x="30" y="51" width="2" height="2" fill="#243457" />
<rect x="34" y="51" width="1" height="1" fill="#324878" />
<rect x="35" y="51" width="2" height="2" fill="#243457" />
<rect x="44" y="51" width="2" height="3" fill="#324878" />
<rect x="2" y="52" width="1" height="6" fill="#FFFFFF" />
<rect x="26" y="52" width="2" height="3" fill="#324878" />
<rect x="32" y="52" width="1" height="8" fill="#324878" />
<rect x="34" y="52" width="1" height="2" fill="#243457" />
<rect x="37" y="52" width="1" height="8" fill="#324878" />
<rect x="38" y="52" width="3" height="2" fill="#243457" />
<rect x="51" y="52" width="1" height="1" fill="#324878" />
<rect x="52" y="52" width="1" height="1" fill="#000000" />
<rect x="53" y="52" width="1" height="12" fill="#151F33" />
<rect x="11" y="53" width="2" height="11" fill="#151F33" />
<rect x="13" y="53" width="2" height="1" fill="#000000" />
<rect x="30" y="53" width="2" height="4" fill="#324878" />
<rect x="35" y="53" width="2" height="7" fill="#324878" />
<rect x="48" y="53" width="2" height="1" fill="#243457" />
<rect x="50" y="53" width="2" height="1" fill="#000000" />
<rect x="52" y="53" width="1" height="11" fill="#151F33" />
<rect x="62" y="53" width="1" height="1" fill="#FFFFFF" />
<rect x="10" y="54" width="1" height="10" fill="#151F33" />
<rect x="13" y="54" width="2" height="6" fill="#151F33" />
<rect x="15" y="54" width="1" height="1" fill="#000000" />
<rect x="33" y="54" width="2" height="6" fill="#324878" />
<rect x="38" y="54" width="2" height="1" fill="#324878" />
<rect x="40" y="54" width="2" height="3" fill="#243457" />
<rect x="44" y="54" width="2" height="2" fill="#243457" />
<rect x="48" y="54" width="1" height="1" fill="#243457" />
<rect x="49" y="54" width="1" height="1" fill="#000000" />
<rect x="50" y="54" width="2" height="10" fill="#151F33" />
<rect x="62" y="54" width="1" height="10" fill="#151F33" />
<rect x="9" y="55" width="1" height="9" fill="#151F33" />
<rect x="15" y="55" width="1" height="9" fill="#151F33" />
<rect x="16" y="55" width="1" height="1" fill="#000000" />
<rect x="25" y="55" width="2" height="2" fill="#243457" />
<rect x="27" y="55" width="1" height="5" fill="#324878" />
<rect x="38" y="55" width="2" height="2" fill="#243457" />
<rect x="42" y="55" width="1" height="2" fill="#243457" />
<rect x="48" y="55" width="1" height="1" fill="#000000" />
<rect x="49" y="55" width="1" height="9" fill="#151F33" />
<rect x="3" y="56" width="2" height="1" fill="#FFFFFF" />
<rect x="5" y="56" width="1" height="3" fill="#CBDBFC" />
<rect x="8" y="56" width="1" height="8" fill="#151F33" />
<rect x="16" y="56" width="1" height="8" fill="#151F33" />
<rect x="17" y="56" width="2" height="1" fill="#000000" />
<rect x="44" y="56" width="2" height="1" fill="#324878" />
<rect x="46" y="56" width="2" height="1" fill="#000000" />
<rect x="48" y="56" width="1" height="8" fill="#151F33" />
<rect x="3" y="57" width="1" height="1" fill="#FFFFFF" />
<rect x="4" y="57" width="1" height="3" fill="#CBDBFC" />
<rect x="7" y="57" width="1" height="7" fill="#151F33" />
<rect x="17" y="57" width="2" height="4" fill="#151F33" />
<rect x="19" y="57" width="2" height="1" fill="#000000" />
<rect x="25" y="57" width="2" height="2" fill="#324878" />
<rect x="28" y="57" width="1" height="3" fill="#324878" />
<rect x="29" y="57" width="2" height="2" fill="#243457" />
<rect x="31" y="57" width="1" height="3" fill="#324878" />
<rect x="38" y="57" width="5" height="1" fill="#324878" />
<rect x="44" y="57" width="2" height="1" fill="#000000" />
<rect x="46" y="57" width="2" height="7" fill="#151F33" />
<rect x="2" y="58" width="2" height="3" fill="#CBDBFC" />
<rect x="6" y="58" width="1" height="6" fill="#151F33" />
<rect x="19" y="58" width="2" height="6" fill="#151F33" />
<rect x="21" y="58" width="2" height="1" fill="#000000" />
<rect x="23" y="58" width="1" height="1" fill="#243457" />
<rect x="24" y="58" width="1" height="1" fill="#324878" />
<rect x="38" y="58" width="4" height="1" fill="#324878" />
<rect x="42" y="58" width="2" height="1" fill="#000000" />
<rect x="44" y="58" width="2" height="6" fill="#151F33" />
<rect x="5" y="59" width="1" height="5" fill="#151F33" />
<rect x="21" y="59" width="2" height="5" fill="#151F33" />
<rect x="23" y="59" width="4" height="1" fill="#000000" />
<rect x="29" y="59" width="2" height="1" fill="#324878" />
<rect x="38" y="59" width="4" height="1" fill="#000000" />
<rect x="42" y="59" width="2" height="5" fill="#151F33" />
<rect x="4" y="60" width="1" height="4" fill="#151F33" />
<rect x="13" y="60" width="1" height="1" fill="#FFFFFF" />
<rect x="14" y="60" width="1" height="4" fill="#151F33" />
<rect x="23" y="60" width="4" height="4" fill="#151F33" />
<rect x="27" y="60" width="11" height="1" fill="#000000" />
<rect x="38" y="60" width="4" height="2" fill="#151F33" />
<rect x="2" y="61" width="1" height="1" fill="#CBDBFC" />
<rect x="3" y="61" width="1" height="3" fill="#151F33" />
<rect x="13" y="61" width="1" height="3" fill="#151F33" />
<rect x="17" y="61" width="1" height="3" fill="#151F33" />
<rect x="18" y="61" width="1" height="1" fill="#FFFFFF" />
<rect x="27" y="61" width="11" height="3" fill="#151F33" />
<rect x="2" y="62" width="1" height="2" fill="#151F33" />
<rect x="18" y="62" width="1" height="2" fill="#151F33" />
<rect x="38" y="62" width="3" height="2" fill="#151F33" />
<rect x="41" y="62" width="1" height="1" fill="#FFFFFF" />
<rect x="55" y="62" width="1" height="1" fill="#FFFFFF" />
<rect x="1" y="63" width="1" height="1" fill="#151F33" />
<rect x="41" y="63" width="1" height="1" fill="#151F33" />
<rect x="55" y="63" width="1" height="1" fill="#151F33" />
</svg>